<mxfile host="app.diagrams.net" modified="2021-11-09T15:35:58.888Z" agent="5.0 (Macintosh; Intel Mac OS X 10_15_7) AppleWebKit/605.1.15 (KHTML, like Gecko) Version/15.0 Safari/605.1.15" etag="0DXviyFZ0K9WfYQX9P7C" version="15.7.1" type="github">
  <diagram name="Page-1" id="edf60f1a-56cd-e834-aa8a-f176f3a09ee4">
    <mxGraphModel dx="1073" dy="878" grid="1" gridSize="10" guides="1" tooltips="1" connect="1" arrows="1" fold="1" page="1" pageScale="1" pageWidth="1100" pageHeight="850" background="none" math="0" shadow="0">
      <root>
        <mxCell id="0" />
        <mxCell id="1" parent="0" />
        <mxCell id="60e70716793133e9-57" style="edgeStyle=orthogonalEdgeStyle;rounded=0;html=1;labelBackgroundColor=none;startSize=5;endArrow=classicThin;endFill=1;endSize=5;jettySize=auto;orthogonalLoop=1;strokeWidth=1;fontFamily=Verdana;fontSize=8" parent="1" target="60e70716793133e9-30" edge="1">
          <mxGeometry relative="1" as="geometry">
            <mxPoint x="710" y="840" as="sourcePoint" />
          </mxGeometry>
        </mxCell>
        <mxCell id="60e70716793133e9-30" value="End" style="strokeWidth=1;html=1;shape=mxgraph.flowchart.terminator;whiteSpace=wrap;rounded=0;shadow=1;labelBackgroundColor=none;fontFamily=Verdana;fontSize=8;align=center;" parent="1" vertex="1">
          <mxGeometry x="680" y="890" width="60" height="30" as="geometry" />
        </mxCell>
        <mxCell id="GA6QrqiWMkRzx74BwVv9-4" value="Input dataset" style="shape=parallelogram;perimeter=parallelogramPerimeter;whiteSpace=wrap;html=1;fixedSize=1;" vertex="1" parent="1">
          <mxGeometry x="235" y="160" width="120" height="60" as="geometry" />
        </mxCell>
        <mxCell id="GA6QrqiWMkRzx74BwVv9-49" style="edgeStyle=orthogonalEdgeStyle;rounded=0;orthogonalLoop=1;jettySize=auto;html=1;exitX=0.5;exitY=1;exitDx=0;exitDy=0;entryX=0.431;entryY=0;entryDx=0;entryDy=0;entryPerimeter=0;" edge="1" parent="1" source="GA6QrqiWMkRzx74BwVv9-6" target="GA6QrqiWMkRzx74BwVv9-16">
          <mxGeometry relative="1" as="geometry" />
        </mxCell>
        <mxCell id="GA6QrqiWMkRzx74BwVv9-6" value="Image resizing &amp;nbsp;" style="rounded=0;whiteSpace=wrap;html=1;" vertex="1" parent="1">
          <mxGeometry x="220" y="350" width="120" height="60" as="geometry" />
        </mxCell>
        <mxCell id="GA6QrqiWMkRzx74BwVv9-47" style="edgeStyle=orthogonalEdgeStyle;rounded=0;orthogonalLoop=1;jettySize=auto;html=1;exitX=0.5;exitY=1;exitDx=0;exitDy=0;entryX=0.5;entryY=0;entryDx=0;entryDy=0;" edge="1" parent="1" source="GA6QrqiWMkRzx74BwVv9-7" target="GA6QrqiWMkRzx74BwVv9-6">
          <mxGeometry relative="1" as="geometry" />
        </mxCell>
        <mxCell id="GA6QrqiWMkRzx74BwVv9-7" value="Training &amp;nbsp;dataset" style="rounded=0;whiteSpace=wrap;html=1;" vertex="1" parent="1">
          <mxGeometry x="140" y="260" width="120" height="60" as="geometry" />
        </mxCell>
        <mxCell id="GA6QrqiWMkRzx74BwVv9-48" style="edgeStyle=orthogonalEdgeStyle;rounded=0;orthogonalLoop=1;jettySize=auto;html=1;exitX=0.5;exitY=1;exitDx=0;exitDy=0;" edge="1" parent="1" source="GA6QrqiWMkRzx74BwVv9-14">
          <mxGeometry relative="1" as="geometry">
            <mxPoint x="280" y="360" as="targetPoint" />
          </mxGeometry>
        </mxCell>
        <mxCell id="GA6QrqiWMkRzx74BwVv9-14" value="Testing &amp;nbsp;dataset" style="rounded=0;whiteSpace=wrap;html=1;" vertex="1" parent="1">
          <mxGeometry x="320" y="260" width="120" height="60" as="geometry" />
        </mxCell>
        <mxCell id="GA6QrqiWMkRzx74BwVv9-15" value="Start" style="strokeWidth=1;html=1;shape=mxgraph.flowchart.terminator;whiteSpace=wrap;rounded=0;shadow=1;labelBackgroundColor=none;fontFamily=Verdana;fontSize=8;align=center;" vertex="1" parent="1">
          <mxGeometry x="265" y="80" width="60" height="30" as="geometry" />
        </mxCell>
        <mxCell id="GA6QrqiWMkRzx74BwVv9-50" style="edgeStyle=orthogonalEdgeStyle;rounded=0;orthogonalLoop=1;jettySize=auto;html=1;exitX=0.5;exitY=1;exitDx=0;exitDy=0;entryX=0.5;entryY=0;entryDx=0;entryDy=0;" edge="1" parent="1" source="GA6QrqiWMkRzx74BwVv9-16" target="GA6QrqiWMkRzx74BwVv9-17">
          <mxGeometry relative="1" as="geometry" />
        </mxCell>
        <mxCell id="GA6QrqiWMkRzx74BwVv9-16" value="Establish CNN model&lt;br&gt;Parameter initialization" style="rounded=0;whiteSpace=wrap;html=1;" vertex="1" parent="1">
          <mxGeometry x="220" y="420" width="140" height="60" as="geometry" />
        </mxCell>
        <mxCell id="GA6QrqiWMkRzx74BwVv9-51" style="edgeStyle=orthogonalEdgeStyle;rounded=0;orthogonalLoop=1;jettySize=auto;html=1;exitX=0.5;exitY=1;exitDx=0;exitDy=0;entryX=0.5;entryY=0;entryDx=0;entryDy=0;" edge="1" parent="1" source="GA6QrqiWMkRzx74BwVv9-17" target="GA6QrqiWMkRzx74BwVv9-18">
          <mxGeometry relative="1" as="geometry" />
        </mxCell>
        <mxCell id="GA6QrqiWMkRzx74BwVv9-17" value="CNN model training" style="rounded=0;whiteSpace=wrap;html=1;" vertex="1" parent="1">
          <mxGeometry x="230" y="500" width="120" height="60" as="geometry" />
        </mxCell>
        <mxCell id="GA6QrqiWMkRzx74BwVv9-52" style="edgeStyle=orthogonalEdgeStyle;rounded=0;orthogonalLoop=1;jettySize=auto;html=1;exitX=0.5;exitY=1;exitDx=0;exitDy=0;entryX=0;entryY=0.5;entryDx=0;entryDy=0;" edge="1" parent="1" source="GA6QrqiWMkRzx74BwVv9-18" target="GA6QrqiWMkRzx74BwVv9-19">
          <mxGeometry relative="1" as="geometry" />
        </mxCell>
        <mxCell id="GA6QrqiWMkRzx74BwVv9-18" value="Error calculation" style="rounded=0;whiteSpace=wrap;html=1;" vertex="1" parent="1">
          <mxGeometry x="240" y="590" width="120" height="60" as="geometry" />
        </mxCell>
        <mxCell id="GA6QrqiWMkRzx74BwVv9-53" style="edgeStyle=orthogonalEdgeStyle;rounded=0;orthogonalLoop=1;jettySize=auto;html=1;exitX=0.5;exitY=1;exitDx=0;exitDy=0;entryX=0.5;entryY=1;entryDx=0;entryDy=0;" edge="1" parent="1" source="GA6QrqiWMkRzx74BwVv9-19" target="GA6QrqiWMkRzx74BwVv9-20">
          <mxGeometry relative="1" as="geometry" />
        </mxCell>
        <mxCell id="GA6QrqiWMkRzx74BwVv9-56" style="edgeStyle=orthogonalEdgeStyle;rounded=0;orthogonalLoop=1;jettySize=auto;html=1;exitX=1;exitY=0.5;exitDx=0;exitDy=0;entryX=0.5;entryY=0;entryDx=0;entryDy=0;" edge="1" parent="1" source="GA6QrqiWMkRzx74BwVv9-19" target="GA6QrqiWMkRzx74BwVv9-21">
          <mxGeometry relative="1" as="geometry" />
        </mxCell>
        <mxCell id="GA6QrqiWMkRzx74BwVv9-19" value="Convergence?" style="rhombus;whiteSpace=wrap;html=1;direction=south;" vertex="1" parent="1">
          <mxGeometry x="215" y="680" width="170" height="95" as="geometry" />
        </mxCell>
        <mxCell id="GA6QrqiWMkRzx74BwVv9-54" style="edgeStyle=orthogonalEdgeStyle;rounded=0;orthogonalLoop=1;jettySize=auto;html=1;exitX=0.5;exitY=0;exitDx=0;exitDy=0;entryX=0;entryY=0.5;entryDx=0;entryDy=0;" edge="1" parent="1" source="GA6QrqiWMkRzx74BwVv9-20" target="GA6QrqiWMkRzx74BwVv9-16">
          <mxGeometry relative="1" as="geometry" />
        </mxCell>
        <mxCell id="GA6QrqiWMkRzx74BwVv9-20" value="epoch = epoch+1" style="rounded=0;whiteSpace=wrap;html=1;" vertex="1" parent="1">
          <mxGeometry x="80" y="500" width="120" height="60" as="geometry" />
        </mxCell>
        <mxCell id="GA6QrqiWMkRzx74BwVv9-58" style="edgeStyle=orthogonalEdgeStyle;rounded=0;orthogonalLoop=1;jettySize=auto;html=1;exitX=0.5;exitY=1;exitDx=0;exitDy=0;entryX=0.5;entryY=0;entryDx=0;entryDy=0;" edge="1" parent="1" source="GA6QrqiWMkRzx74BwVv9-21" target="GA6QrqiWMkRzx74BwVv9-30">
          <mxGeometry relative="1" as="geometry" />
        </mxCell>
        <mxCell id="GA6QrqiWMkRzx74BwVv9-21" value="Complete training" style="rounded=0;whiteSpace=wrap;html=1;" vertex="1" parent="1">
          <mxGeometry x="240" y="800" width="120" height="60" as="geometry" />
        </mxCell>
        <mxCell id="GA6QrqiWMkRzx74BwVv9-25" value="Load model&lt;br&gt;&lt;div style=&quot;background-color: rgb(255 , 255 , 254) ; font-family: monospace , &amp;#34;menlo&amp;#34; , &amp;#34;monaco&amp;#34; , &amp;#34;courier new&amp;#34; , monospace ; font-size: 14px ; line-height: 19px&quot;&gt;&lt;span style=&quot;color: rgb(163 , 21 , 21)&quot;&gt;&#39;haarcascade_frontalface_default.xml&#39;&lt;/span&gt;&lt;/div&gt;&lt;div style=&quot;background-color: rgb(255 , 255 , 254) ; font-family: monospace , &amp;#34;menlo&amp;#34; , &amp;#34;monaco&amp;#34; , &amp;#34;courier new&amp;#34; , monospace ; font-size: 14px ; line-height: 19px&quot;&gt;&lt;span style=&quot;color: rgb(163 , 21 , 21)&quot;&gt;for&amp;nbsp;&lt;/span&gt;&lt;span style=&quot;color: rgb(163 , 21 , 21)&quot;&gt;detection face&lt;/span&gt;&lt;/div&gt;" style="shape=parallelogram;perimeter=parallelogramPerimeter;whiteSpace=wrap;html=1;fixedSize=1;" vertex="1" parent="1">
          <mxGeometry x="520" y="180" width="360" height="60" as="geometry" />
        </mxCell>
        <mxCell id="GA6QrqiWMkRzx74BwVv9-27" value="" style="endArrow=classic;html=1;rounded=0;exitX=1;exitY=0.5;exitDx=0;exitDy=0;entryX=0;entryY=0.5;entryDx=0;entryDy=0;" edge="1" parent="1" source="GA6QrqiWMkRzx74BwVv9-30" target="GA6QrqiWMkRzx74BwVv9-32">
          <mxGeometry width="50" height="50" relative="1" as="geometry">
            <mxPoint x="490" y="610" as="sourcePoint" />
            <mxPoint x="620" y="450" as="targetPoint" />
          </mxGeometry>
        </mxCell>
        <mxCell id="GA6QrqiWMkRzx74BwVv9-28" value="" style="endArrow=classic;html=1;rounded=0;exitX=0.5;exitY=1;exitDx=0;exitDy=0;entryX=0.5;entryY=0;entryDx=0;entryDy=0;" edge="1" parent="1" source="GA6QrqiWMkRzx74BwVv9-25" target="GA6QrqiWMkRzx74BwVv9-32">
          <mxGeometry width="50" height="50" relative="1" as="geometry">
            <mxPoint x="490" y="290" as="sourcePoint" />
            <mxPoint x="685" y="425" as="targetPoint" />
          </mxGeometry>
        </mxCell>
        <mxCell id="GA6QrqiWMkRzx74BwVv9-30" value="&lt;span&gt;Save CNN model&amp;nbsp;&lt;/span&gt;" style="shape=parallelogram;perimeter=parallelogramPerimeter;whiteSpace=wrap;html=1;fixedSize=1;" vertex="1" parent="1">
          <mxGeometry x="225" y="900" width="160" height="60" as="geometry" />
        </mxCell>
        <mxCell id="GA6QrqiWMkRzx74BwVv9-59" style="edgeStyle=orthogonalEdgeStyle;rounded=0;orthogonalLoop=1;jettySize=auto;html=1;exitX=0.5;exitY=1;exitDx=0;exitDy=0;entryX=0.5;entryY=0;entryDx=0;entryDy=0;" edge="1" parent="1" source="GA6QrqiWMkRzx74BwVv9-32" target="GA6QrqiWMkRzx74BwVv9-33">
          <mxGeometry relative="1" as="geometry" />
        </mxCell>
        <mxCell id="GA6QrqiWMkRzx74BwVv9-32" value="Load CNN model" style="shape=parallelogram;perimeter=parallelogramPerimeter;whiteSpace=wrap;html=1;fixedSize=1;" vertex="1" parent="1">
          <mxGeometry x="567.5" y="380" width="265" height="60" as="geometry" />
        </mxCell>
        <mxCell id="GA6QrqiWMkRzx74BwVv9-60" style="edgeStyle=orthogonalEdgeStyle;rounded=0;orthogonalLoop=1;jettySize=auto;html=1;exitX=0.5;exitY=1;exitDx=0;exitDy=0;entryX=0.437;entryY=0.033;entryDx=0;entryDy=0;entryPerimeter=0;" edge="1" parent="1" source="GA6QrqiWMkRzx74BwVv9-33" target="GA6QrqiWMkRzx74BwVv9-34">
          <mxGeometry relative="1" as="geometry" />
        </mxCell>
        <mxCell id="GA6QrqiWMkRzx74BwVv9-33" value="Open webcam" style="rounded=0;whiteSpace=wrap;html=1;" vertex="1" parent="1">
          <mxGeometry x="640" y="480" width="120" height="60" as="geometry" />
        </mxCell>
        <mxCell id="GA6QrqiWMkRzx74BwVv9-61" style="edgeStyle=orthogonalEdgeStyle;rounded=0;orthogonalLoop=1;jettySize=auto;html=1;exitX=0.5;exitY=1;exitDx=0;exitDy=0;entryX=0.5;entryY=0;entryDx=0;entryDy=0;" edge="1" parent="1" source="GA6QrqiWMkRzx74BwVv9-34" target="GA6QrqiWMkRzx74BwVv9-35">
          <mxGeometry relative="1" as="geometry" />
        </mxCell>
        <mxCell id="GA6QrqiWMkRzx74BwVv9-34" value="&lt;div style=&quot;background-color: rgb(255 , 255 , 254) ; font-family: monospace , &amp;#34;menlo&amp;#34; , &amp;#34;monaco&amp;#34; , &amp;#34;courier new&amp;#34; , monospace ; font-size: 14px ; line-height: 19px&quot;&gt;Face classifier&lt;/div&gt;" style="rounded=0;whiteSpace=wrap;html=1;" vertex="1" parent="1">
          <mxGeometry x="620" y="590" width="180" height="60" as="geometry" />
        </mxCell>
        <mxCell id="GA6QrqiWMkRzx74BwVv9-62" style="edgeStyle=orthogonalEdgeStyle;rounded=0;orthogonalLoop=1;jettySize=auto;html=1;exitX=0.5;exitY=1;exitDx=0;exitDy=0;entryX=0.5;entryY=0;entryDx=0;entryDy=0;" edge="1" parent="1" source="GA6QrqiWMkRzx74BwVv9-35" target="GA6QrqiWMkRzx74BwVv9-36">
          <mxGeometry relative="1" as="geometry" />
        </mxCell>
        <mxCell id="GA6QrqiWMkRzx74BwVv9-35" value="&lt;div style=&quot;background-color: rgb(255 , 255 , 254) ; font-family: monospace , &amp;#34;menlo&amp;#34; , &amp;#34;monaco&amp;#34; , &amp;#34;courier new&amp;#34; , monospace ; font-size: 14px ; line-height: 19px&quot;&gt;prediction&lt;/div&gt;" style="rounded=0;whiteSpace=wrap;html=1;" vertex="1" parent="1">
          <mxGeometry x="650" y="680" width="120" height="60" as="geometry" />
        </mxCell>
        <mxCell id="GA6QrqiWMkRzx74BwVv9-36" value="Show output" style="rounded=0;whiteSpace=wrap;html=1;" vertex="1" parent="1">
          <mxGeometry x="650" y="775" width="120" height="60" as="geometry" />
        </mxCell>
        <mxCell id="GA6QrqiWMkRzx74BwVv9-39" value="" style="endArrow=classic;html=1;rounded=0;exitX=0.5;exitY=1;exitDx=0;exitDy=0;exitPerimeter=0;entryX=0.5;entryY=0;entryDx=0;entryDy=0;" edge="1" parent="1" source="GA6QrqiWMkRzx74BwVv9-15" target="GA6QrqiWMkRzx74BwVv9-4">
          <mxGeometry width="50" height="50" relative="1" as="geometry">
            <mxPoint x="510" y="510" as="sourcePoint" />
            <mxPoint x="560" y="460" as="targetPoint" />
          </mxGeometry>
        </mxCell>
        <mxCell id="GA6QrqiWMkRzx74BwVv9-42" value="" style="endArrow=none;html=1;rounded=0;exitX=0.406;exitY=1.006;exitDx=0;exitDy=0;exitPerimeter=0;" edge="1" parent="1" source="GA6QrqiWMkRzx74BwVv9-4">
          <mxGeometry width="50" height="50" relative="1" as="geometry">
            <mxPoint x="510" y="510" as="sourcePoint" />
            <mxPoint x="284" y="240" as="targetPoint" />
          </mxGeometry>
        </mxCell>
        <mxCell id="GA6QrqiWMkRzx74BwVv9-43" value="" style="endArrow=none;html=1;rounded=0;" edge="1" parent="1">
          <mxGeometry width="50" height="50" relative="1" as="geometry">
            <mxPoint x="200" y="240" as="sourcePoint" />
            <mxPoint x="380" y="240" as="targetPoint" />
          </mxGeometry>
        </mxCell>
        <mxCell id="GA6QrqiWMkRzx74BwVv9-44" value="" style="endArrow=classic;html=1;rounded=0;entryX=0.5;entryY=0;entryDx=0;entryDy=0;" edge="1" parent="1" target="GA6QrqiWMkRzx74BwVv9-7">
          <mxGeometry width="50" height="50" relative="1" as="geometry">
            <mxPoint x="200" y="240" as="sourcePoint" />
            <mxPoint x="560" y="460" as="targetPoint" />
          </mxGeometry>
        </mxCell>
        <mxCell id="GA6QrqiWMkRzx74BwVv9-46" value="" style="endArrow=classic;html=1;rounded=0;entryX=0.5;entryY=0;entryDx=0;entryDy=0;" edge="1" parent="1" target="GA6QrqiWMkRzx74BwVv9-14">
          <mxGeometry width="50" height="50" relative="1" as="geometry">
            <mxPoint x="380" y="240" as="sourcePoint" />
            <mxPoint x="560" y="460" as="targetPoint" />
          </mxGeometry>
        </mxCell>
        <mxCell id="GA6QrqiWMkRzx74BwVv9-55" value="No" style="text;html=1;strokeColor=none;fillColor=none;align=center;verticalAlign=middle;whiteSpace=wrap;rounded=0;" vertex="1" parent="1">
          <mxGeometry x="150" y="700" width="60" height="30" as="geometry" />
        </mxCell>
        <mxCell id="GA6QrqiWMkRzx74BwVv9-57" value="Yes" style="text;strokeColor=none;fillColor=none;align=left;verticalAlign=middle;spacingLeft=4;spacingRight=4;overflow=hidden;points=[[0,0.5],[1,0.5]];portConstraint=eastwest;rotatable=0;" vertex="1" parent="1">
          <mxGeometry x="310" y="770" width="80" height="30" as="geometry" />
        </mxCell>
      </root>
    </mxGraphModel>
  </diagram>
</mxfile>
